<?xml version="1.0" encoding="UTF-8" standalone="no"?>
<!-- Created with Inkscape (http://www.inkscape.org/) -->

<svg
   version="1.1"
   id="svg2"
   width="512"
   height="512"
   viewBox="0 0 512 512"
   sodipodi:docname="developer.svg"
   inkscape:version="1.2.2 (732a01da63, 2022-12-09)"
   xmlns:inkscape="http://www.inkscape.org/namespaces/inkscape"
   xmlns:sodipodi="http://sodipodi.sourceforge.net/DTD/sodipodi-0.dtd"
   xmlns="http://www.w3.org/2000/svg"
   xmlns:svg="http://www.w3.org/2000/svg">
  <defs
     id="defs6" />
  <sodipodi:namedview
     id="namedview4"
     pagecolor="#ffffff"
     bordercolor="#000000"
     borderopacity="0.25"
     inkscape:showpageshadow="2"
     inkscape:pageopacity="0.0"
     inkscape:pagecheckerboard="0"
     inkscape:deskcolor="#d1d1d1"
     showgrid="false"
     inkscape:zoom="1.6347656"
     inkscape:cx="256.30585"
     inkscape:cy="207.36918"
     inkscape:window-width="1920"
     inkscape:window-height="1017"
     inkscape:window-x="-8"
     inkscape:window-y="-8"
     inkscape:window-maximized="1"
     inkscape:current-layer="g8" />
  <g
     inkscape:groupmode="layer"
     inkscape:label="Image"
     id="g8">
    <g
       id="g170"
       transform="translate(-14.069296,0.61170801)">
      <path
         style="fill:#fdcaba;stroke-width:0.778529"
         d="m 209.62132,253.42929 c -4.90176,-11.72821 -5.53134,-16.29795 -5.89742,-42.80623 l -0.33085,-23.95639 2.13681,-0.005 c 1.17524,-0.002 5.35455,-0.52756 9.28735,-1.16655 20.62222,-3.35067 37.30712,-12.1868 48.66152,-25.77058 5.81844,-6.96086 6.87814,-6.96059 12.62834,0.003 11.15238,13.50595 27.951,22.41201 48.60261,25.76746 3.93279,0.63899 8.11548,1.16394 9.29486,1.16655 l 2.14433,0.005 -0.35423,23.95639 c -0.407,27.52644 -0.76681,29.99303 -6.40183,43.8865 l -1.87796,4.63023 H 269.76142 212.008 l -2.38668,-5.7105 z m 36.46112,-26.79417 c 6.64254,-3.30921 11.63799,-11.04607 11.63799,-18.02471 0,-3.12312 0.98345,-3.40084 12.04301,-3.40084 11.61531,0 11.78662,0.0656 12.203,4.6771 0.65621,7.26767 5.21843,14.09998 11.43057,17.11821 4.10295,1.99345 11.82816,2.00875 15.88256,0.0315 7.52324,-3.66903 11.67772,-10.58349 11.65014,-19.38978 -0.0362,-11.55566 -7.39753,-19.95067 -18.26212,-20.8265 -5.63742,-0.45445 -10.30292,1.42402 -14.85789,5.98223 l -3.44776,3.45021 -7.29924,-0.91382 c -5.45708,-0.68319 -9.15139,-0.68162 -14.63797,0.006 l -7.33871,0.92005 -3.01075,-3.10107 c -4.73344,-4.87542 -7.46231,-6.06301 -13.92473,-6.05994 -6.41359,0.003 -10.02881,1.58418 -14.02864,6.13553 -4.03287,4.58894 -5.1353,7.67419 -5.13252,14.36387 0.002,4.62609 0.37931,6.79321 1.61265,9.26046 5.06945,10.14123 16.18306,14.40311 25.48041,9.77131 z m -57.06126,1.054 c -9.47943,-6.71744 -12.06418,-20.61369 -5.7355,-30.83555 2.19566,-3.54636 8.18318,-8.57638 10.20895,-8.57638 0.80589,0 1,4.06393 1,20.93668 0,16.87274 -0.19411,20.93667 -1,20.93667 -0.54999,0 -2.56304,-1.10763 -4.47345,-2.46142 z m 156.01108,-18.47525 c 0,-16.87275 0.1941,-20.93668 0.99999,-20.93668 2.02577,0 8.01329,5.03002 10.20896,8.57638 4.5718,7.38423 4.64271,17.30676 0.17452,24.42438 -2.10792,3.35782 -8.56392,8.87259 -10.38693,8.87259 -0.80138,0 -0.99654,-4.10025 -0.99654,-20.93667 z m -4.92789,-126.626651 -2.97534,-3.422342 3.19893,3.183138 c 1.75941,1.750726 3.19892,3.29078 3.19892,3.422342 0,0.609239 -0.65548,-3.94e-4 -3.42251,-3.183138 z M 199.3871,81.983276 c 1.61695,-1.771565 3.10928,-3.221028 3.31627,-3.221028 0.20699,0 -0.94663,1.449463 -2.56358,3.221028 -1.61696,1.771565 -3.10928,3.221028 -3.31627,3.221028 -0.20699,0 0.94662,-1.449463 2.56358,-3.221028 z"
         id="path184" />
      <path
         style="fill:#7ddae6;stroke-width:0.778529"
         d="m 233.68791,217.50991 c -9.28414,-5.22091 -6.95607,-19.52236 3.39876,-20.87867 5.50155,-0.7206 10.6208,3.72672 11.3197,9.83395 0.96132,8.40037 -7.76986,14.95225 -14.71846,11.04472 z m 63.22581,0 c -9.28415,-5.22091 -6.95608,-19.52236 3.39876,-20.87867 5.50154,-0.7206 10.62079,3.72672 11.31969,9.83395 0.96133,8.40037 -7.76985,14.95225 -14.71845,11.04472 z"
         id="path182" />
      <path
         style="fill:#fdbf06;stroke-width:0.778529"
         d="m 87.612906,452.40145 c -1.25448,-1.3421 -1.505376,-2.68419 -1.505376,-8.05257 0,-5.36838 0.250896,-6.71047 1.505376,-8.05257 1.497014,-1.60157 2.508961,-1.61051 182.150534,-1.61051 179.64158,0 180.65352,0.009 182.15054,1.61051 1.25448,1.3421 1.50537,2.68419 1.50537,8.05257 0,5.36838 -0.25089,6.71047 -1.50537,8.05257 -1.49702,1.60156 -2.50896,1.61051 -182.15054,1.61051 -179.641573,0 -180.65352,-0.009 -182.150534,-1.61051 z"
         id="path180" />
      <path
         style="fill:#de2361;stroke-width:0.778529"
         d="m 118.81429,422.80826 c 1.27739,-5.60854 10.25483,-25.16609 11.55051,-25.16303 0.29022,6.8e-4 2.02278,5.70794 3.85013,12.68279 1.82735,6.97486 3.47246,13.13451 3.6558,13.68812 0.25582,0.77247 -1.98008,1.00657 -9.61373,1.00657 h -9.94707 z m 282.84186,1.20788 c 0.18334,-0.55361 1.82845,-6.71326 3.6558,-13.68812 1.82736,-6.97485 3.55992,-12.68211 3.85014,-12.68279 1.29568,-0.003 10.27311,19.55449 11.55051,25.16303 l 0.50436,2.21445 h -9.94707 c -7.63365,0 -9.86955,-0.2341 -9.61374,-1.00657 z"
         id="path178" />
      <path
         style="fill:#445962;stroke-width:0.778529"
         d="m 147.20456,422.40563 c -0.38179,-1.4394 -7.90943,-29.43214 -16.7281,-62.2061 -17.34106,-64.44685 -17.90429,-67.19441 -15.41678,-75.20667 1.58578,-5.10777 6.77371,-11.37247 11.49657,-13.88269 l 3.58354,-1.90467 H 269.76344 409.3871 l 3.58354,1.90467 c 4.72285,2.51022 9.91079,8.77492 11.49656,13.88269 2.48445,8.00239 1.91782,10.76568 -15.42177,75.20667 -8.81871,32.77396 -16.34526,60.7667 -16.72564,62.2061 l -0.69163,2.61708 H 269.76344 147.89872 Z m 83.59347,-21.90639 c 2.53367,-0.57025 7.03996,-4.7044 8.56345,-7.85626 1.31424,-2.71895 1.51896,-8.93205 0.39706,-12.0501 -0.42624,-1.18461 -4.18015,-6.74919 -8.34202,-12.36574 -4.16188,-5.61655 -7.56706,-10.48133 -7.56706,-10.81063 0,-0.3293 3.42729,-5.27331 7.6162,-10.98671 8.39684,-11.45272 8.94294,-12.52962 8.94294,-17.63529 0,-8.80819 -5.69392,-14.89725 -13.93054,-14.89725 -6.38215,0 -8.41632,1.85527 -21.80403,19.8863 -18.05919,24.32276 -18.0556,22.87893 -0.11694,47.03401 6.70837,9.03308 13.11045,17.06233 14.22684,17.84279 2.14279,1.49799 6.92814,2.85783 8.82897,2.5089 0.62097,-0.11399 2.05428,-0.41549 3.18513,-0.67002 z m -9.20663,-74.0219 c 0,-0.16721 0.59274,-0.80135 1.3172,-1.4092 1.19381,-1.00164 1.22043,-0.97315 0.28419,0.30403 -0.98329,1.34136 -1.60139,1.76793 -1.60139,1.10517 z m 47.18218,73.53118 c 2.56421,-1.03649 6.02435,-4.42821 7.40905,-7.26252 0.55878,-1.14378 3.93761,-15.63841 7.50851,-32.21028 4.6173,-21.42806 6.396,-31.12342 6.15827,-33.56777 -1.14672,-11.79102 -15.28679,-17.35843 -23.35209,-9.19449 -1.1754,1.18978 -2.57639,3.06914 -3.1133,4.17637 -1.80332,3.71881 -14.10781,63.01736 -13.6724,65.89085 0.69279,4.57203 3.8905,9.44708 7.42406,11.31832 3.49891,1.85288 8.29037,2.20264 11.6379,0.84952 z m -10.24104,-14.10787 c 0.0361,-0.93808 0.21448,-1.12889 0.45475,-0.48651 0.21743,0.58129 0.19069,1.27583 -0.0594,1.54341 -0.25012,0.26758 -0.42801,-0.20803 -0.39533,-1.0569 z m 21.88738,-56.70351 c 0,-1.10723 0.17084,-1.56018 0.37965,-1.00657 0.2088,0.55362 0.2088,1.45953 0,2.01314 -0.20881,0.55362 -0.37965,0.10066 -0.37965,-1.00657 z m 38.75035,70.25867 c 2.0571,-1.03857 6.10568,-5.83387 15.39312,-18.23227 18.47517,-24.66371 18.4739,-23.13847 0.0402,-47.68909 -13.66278,-18.19655 -15.46261,-19.82302 -21.93593,-19.82302 -9.29162,0 -15.82966,9.65104 -13.32885,19.6752 0.29862,1.19699 4.10823,6.9739 8.46579,12.83758 4.35756,5.86368 7.75476,11.12983 7.54933,11.70254 -0.20542,0.57272 -3.58703,5.3243 -7.51468,10.55906 -7.80647,10.40448 -8.72096,12.23764 -8.72096,17.48194 0,6.19438 2.99878,11.41388 7.90323,13.75592 3.17962,1.51837 8.85874,1.39316 12.14876,-0.26786 z M 104.23147,297.32239 c 0.0361,-0.93808 0.21447,-1.12889 0.45475,-0.48651 0.21743,0.58129 0.19069,1.27583 -0.0594,1.54341 -0.25011,0.26758 -0.42801,-0.20803 -0.39532,-1.0569 z m 330.4301,0 c 0.0361,-0.93808 0.21448,-1.12889 0.45475,-0.48651 0.21743,0.58129 0.19069,1.27583 -0.0594,1.54341 -0.25011,0.26758 -0.42801,-0.20803 -0.39533,-1.0569 z M 203.58631,231.29133 c 0.0361,-0.93809 0.21447,-1.12889 0.45474,-0.48651 0.21743,0.58129 0.1907,1.27582 -0.0594,1.54341 -0.25012,0.26758 -0.42801,-0.20803 -0.39533,-1.0569 z m 131.72043,0 c 0.0361,-0.93809 0.21447,-1.12889 0.45474,-0.48651 0.21743,0.58129 0.19069,1.27582 -0.0594,1.54341 -0.25011,0.26758 -0.428,-0.20803 -0.39532,-1.0569 z m -20.38201,-8.79073 c 0.97229,-1.10722 1.93714,-2.01314 2.14413,-2.01314 0.20699,0 -0.41916,0.90592 -1.39144,2.01314 -0.97228,1.10723 -1.93714,2.01315 -2.14413,2.01315 -0.20699,0 0.41916,-0.90592 1.39144,-2.01315 z m -27.94547,-0.20131 c -0.93625,-1.27719 -0.90963,-1.30567 0.28418,-0.30403 0.72446,0.60785 1.31721,1.24199 1.31721,1.4092 0,0.66276 -0.6181,0.23619 -1.60139,-1.10517 z m -20.0384,-17.69831 c 1.55242,-0.17373 4.09274,-0.17373 5.64516,0 1.55242,0.17373 0.28226,0.31587 -2.82258,0.31587 -3.10484,0 -4.375,-0.14214 -2.82258,-0.31587 z m 0,-9.66309 c 1.55242,-0.17372 4.09274,-0.17372 5.64516,0 1.55242,0.17374 0.28226,0.31587 -2.82258,0.31587 -3.10484,0 -4.375,-0.14213 -2.82258,-0.31587 z m 47.88786,-2.43311 c -0.93625,-1.27718 -0.90962,-1.30566 0.28418,-0.30403 1.25379,1.05197 1.65252,1.71323 1.03302,1.71323 -0.15629,0 -0.74903,-0.63414 -1.3172,-1.4092 z m -107.72657,-6.37141 c 0.51748,-0.22339 1.36425,-0.22339 1.88172,0 0.51748,0.22338 0.0941,0.40616 -0.94086,0.40616 -1.03494,0 -1.45833,-0.18278 -0.94086,-0.40616 z m 123.44086,0 c 0.51747,-0.22339 1.36425,-0.22339 1.88172,0 0.51747,0.22338 0.0941,0.40616 -0.94086,0.40616 -1.03494,0 -1.45833,-0.18278 -0.94086,-0.40616 z m 37.94142,-36.50851 c 0,-1.10723 0.17085,-1.56019 0.37965,-1.00658 0.20881,0.55362 0.20881,1.45953 0,2.01315 -0.2088,0.55361 -0.37965,0.10065 -0.37965,-1.00657 z m -198.0164,-0.46974 c 0.0361,-0.93808 0.21447,-1.12889 0.45474,-0.48651 0.21743,0.58129 0.1907,1.27583 -0.0594,1.54341 -0.25012,0.26758 -0.42801,-0.20803 -0.39533,-1.0569 z m 90.87471,-97.516431 c 0.54335,-0.232615 1.19254,-0.204008 1.44266,0.06357 0.25011,0.26758 -0.19445,0.457901 -0.98791,0.422936 -0.87684,-0.03864 -1.05519,-0.22945 -0.45475,-0.486509 z m 15.80645,0 c 0.54335,-0.232615 1.19255,-0.204008 1.44266,0.06357 0.25011,0.26758 -0.19445,0.457901 -0.9879,0.422936 -0.87685,-0.03864 -1.0552,-0.22945 -0.45476,-0.486509 z"
         id="path176" />
      <path
         style="fill:#36464e;stroke-width:0.778529"
         d="m 80.742703,459.04482 c -0.936246,-1.27719 -0.909623,-1.30567 0.284182,-0.30404 0.724462,0.60785 1.317204,1.24199 1.317204,1.4092 0,0.66276 -0.618096,0.23619 -1.601386,-1.10516 z m 376.440087,1.10516 c 0,-0.16721 0.59275,-0.80135 1.31721,-1.4092 1.19381,-1.00163 1.22043,-0.97315 0.28418,0.30404 -0.98329,1.34135 -1.60139,1.76792 -1.60139,1.10516 z M 80.086025,430.35548 c 0,-0.16721 0.592742,-0.80135 1.317204,-1.4092 1.193805,-1.00164 1.220428,-0.97315 0.284181,0.30403 -0.983289,1.34136 -1.601385,1.76793 -1.601385,1.10517 z m 377.753445,-1.10517 c -0.93625,-1.27718 -0.90962,-1.30567 0.28419,-0.30403 0.72446,0.60785 1.3172,1.24199 1.3172,1.4092 0,0.66276 -0.6181,0.23619 -1.60139,-1.10517 z m -241.94058,-33.41816 -2.21072,-2.61708 2.44624,2.36511 c 2.28024,2.20461 2.79221,2.86906 2.21071,2.86906 -0.12953,0 -1.23034,-1.17769 -2.44623,-2.61709 z m 106.55272,0.60394 c 0.97229,-1.10722 1.93714,-2.01314 2.14413,-2.01314 0.20699,0 -0.41915,0.90592 -1.39144,2.01314 -0.97228,1.10723 -1.93714,2.01315 -2.14413,2.01315 -0.20699,0 0.41916,-0.90592 1.39144,-2.01315 z m 3.01076,-3.92769 c 0,-0.16721 0.59274,-0.80135 1.3172,-1.4092 1.19381,-1.00163 1.22043,-0.97315 0.28419,0.30404 -0.98329,1.34135 -1.60139,1.76792 -1.60139,1.10516 z m -113.75193,-1.91042 c -0.93625,-1.27718 -0.90962,-1.30567 0.28419,-0.30403 0.72446,0.60785 1.3172,1.24199 1.3172,1.4092 0,0.66276 -0.6181,0.23619 -1.60139,-1.10517 z m 37.92023,-4.63023 c 0.008,-1.77156 0.1625,-2.40147 0.34254,-1.39981 0.18003,1.00167 0.1732,2.45113 -0.0152,3.22103 -0.18839,0.7699 -0.3357,-0.0497 -0.32734,-1.82122 z m 78.84245,2.51437 c 0,-0.16721 0.59274,-0.80135 1.3172,-1.4092 1.19381,-1.00163 1.22043,-0.97315 0.28419,0.30403 -0.98329,1.34136 -1.60139,1.76793 -1.60139,1.10517 z M 208.69969,386.5717 c -0.93625,-1.27719 -0.90963,-1.30567 0.28418,-0.30404 1.25379,1.05197 1.65251,1.71324 1.03302,1.71324 -0.15629,0 -0.74904,-0.63414 -1.3172,-1.4092 z m 122.78418,-2.11586 c 0,-0.16722 0.59274,-0.80136 1.31721,-1.4092 1.1938,-1.00164 1.22043,-0.97316 0.28418,0.30403 -0.98329,1.34136 -1.60139,1.76792 -1.60139,1.10517 z m -125.79493,-1.91043 c -0.93625,-1.27718 -0.90963,-1.30567 0.28418,-0.30403 0.72446,0.60785 1.3172,1.24199 1.3172,1.4092 0,0.66276 -0.6181,0.23619 -1.60138,-1.10517 z m 128.80568,-2.11586 c 0,-0.16721 0.59275,-0.80135 1.31721,-1.4092 1.19381,-1.00163 1.22043,-0.97315 0.28418,0.30403 -0.98329,1.34136 -1.60139,1.76793 -1.60139,1.10517 z m -131.81644,-1.91042 c -0.93624,-1.27719 -0.90962,-1.30567 0.28419,-0.30404 0.72446,0.60785 1.3172,1.24199 1.3172,1.4092 0,0.66276 -0.6181,0.23619 -1.60139,-1.10516 z m 34.62366,-1.61052 c -0.93625,-1.27718 -0.90963,-1.30566 0.28418,-0.30403 0.72447,0.60785 1.31721,1.24199 1.31721,1.4092 0,0.66276 -0.6181,0.23619 -1.60139,-1.10517 z m 42.30597,0.13422 c 0.0361,-0.93809 0.21447,-1.12889 0.45475,-0.48652 0.21743,0.58129 0.19069,1.27584 -0.0594,1.54342 -0.25011,0.26757 -0.42801,-0.20803 -0.39533,-1.0569 z m 57.89757,-0.63956 c 0,-0.16721 0.59274,-0.80135 1.3172,-1.4092 1.19381,-1.00164 1.22043,-0.97316 0.28419,0.30403 -0.98329,1.34136 -1.60139,1.76793 -1.60139,1.10517 z m -34.62366,-1.61052 c 0,-0.16721 0.59274,-0.80135 1.31721,-1.4092 1.1938,-1.00163 1.22043,-0.97315 0.28418,0.30404 -0.98329,1.34135 -1.60139,1.76792 -1.60139,1.10516 z m -68.59063,-1.91042 c -0.93625,-1.27719 -0.90963,-1.30567 0.28418,-0.30403 0.72446,0.60784 1.3172,1.24198 1.3172,1.4092 0,0.66275 -0.6181,0.23619 -1.60138,-1.10517 z m 17.46726,0.13421 c 0.0361,-0.93808 0.21447,-1.12889 0.45474,-0.48651 0.21743,0.58129 0.1907,1.27583 -0.0594,1.54341 -0.25012,0.26758 -0.42801,-0.20803 -0.39533,-1.0569 z m 88.75778,-0.63956 c 0,-0.16721 0.59274,-0.80135 1.3172,-1.4092 1.19381,-1.00163 1.22043,-0.97315 0.28419,0.30404 -0.98329,1.34135 -1.60139,1.76792 -1.60139,1.10516 z m -34.62366,-1.61051 c 0,-0.16721 0.59275,-0.80135 1.31721,-1.4092 1.19381,-1.00164 1.22043,-0.97315 0.28418,0.30403 -0.98329,1.34136 -1.60139,1.76793 -1.60139,1.10517 z m -74.61214,-1.91043 c -0.93624,-1.27718 -0.90962,-1.30566 0.28419,-0.30403 0.72446,0.60785 1.3172,1.24199 1.3172,1.4092 0,0.66276 -0.6181,0.23619 -1.60139,-1.10517 z m -36.88172,-1.61051 c -0.93624,-1.27718 -0.90962,-1.30567 0.28419,-0.30403 1.25379,1.05196 1.65251,1.71323 1.03302,1.71323 -0.1563,0 -0.74904,-0.63414 -1.31721,-1.4092 z m 149.12827,1.10517 c 0,-0.16721 0.59274,-0.80135 1.31721,-1.4092 1.1938,-1.00164 1.22043,-0.97315 0.28418,0.30403 -0.98329,1.34136 -1.60139,1.76793 -1.60139,1.10517 z m -34.62365,-1.61052 c 0,-0.16721 0.59274,-0.80135 1.3172,-1.4092 1.19381,-1.00163 1.22043,-0.97315 0.28419,0.30404 -0.98329,1.34135 -1.60139,1.76792 -1.60139,1.10516 z m -116.32128,-2.16531 c -0.27287,-0.47235 -0.3347,-1.03153 -0.1374,-1.24261 0.1973,-0.21109 0.55929,0.17539 0.80444,0.85883 0.50895,1.41895 0.0752,1.66854 -0.66704,0.38378 z m 153.62773,-0.18247 c 0.28266,-0.79416 0.70353,-1.24108 0.93528,-0.99315 0.23174,0.24793 4.8e-4,0.8977 -0.51392,1.44393 -0.74337,0.78936 -0.82983,0.69687 -0.42136,-0.45078 z m -120.19816,-2.78367 c -0.93625,-1.27718 -0.90963,-1.30567 0.28418,-0.30403 0.72446,0.60785 1.3172,1.24199 1.3172,1.4092 0,0.66276 -0.6181,0.23619 -1.60138,-1.10517 z m 85.90246,1.10517 c 0,-0.16721 0.59274,-0.80135 1.3172,-1.4092 1.19381,-1.00164 1.22043,-0.97315 0.28419,0.30403 -0.98329,1.34136 -1.60139,1.76793 -1.60139,1.10517 z m -121.06395,-5.33277 c 0,-1.10722 0.17084,-1.56018 0.37965,-1.00657 0.2088,0.55362 0.2088,1.45953 0,2.01315 -0.20881,0.55361 -0.37965,0.10065 -0.37965,-1.00658 z m 32.58256,0.7351 c -0.27815,-0.48149 -0.20136,-1.20104 0.17063,-1.59902 0.40001,-0.42794 0.67635,-0.0703 0.67635,0.87543 0,1.82973 -0.13925,1.94869 -0.84698,0.72359 z m 91.81472,-0.7351 c 0,-1.043 0.25449,-1.31525 0.74194,-0.79375 0.48745,0.5215 0.48745,1.06601 0,1.5875 -0.48745,0.5215 -0.74194,0.24925 -0.74194,-0.79375 z m 32.91454,0 c 0,-1.10722 0.17085,-1.56018 0.37965,-1.00657 0.2088,0.55362 0.2088,1.45953 0,2.01315 -0.2088,0.55361 -0.37965,0.10065 -0.37965,-1.00658 z m -122.80701,-3.52506 c 0,-0.16721 0.59274,-0.80135 1.3172,-1.4092 1.19381,-1.00163 1.22044,-0.97315 0.28419,0.30404 -0.98329,1.34135 -1.60139,1.76792 -1.60139,1.10516 z m 87.21581,-1.10516 c -0.93624,-1.27719 -0.90962,-1.30567 0.28419,-0.30404 1.25379,1.05197 1.65251,1.71324 1.03302,1.71324 -0.1563,0 -0.74904,-0.63414 -1.31721,-1.4092 z m -120.33409,-1.7643 c 0,-0.41676 0.33483,-0.97913 0.74407,-1.24972 0.42667,-0.28211 0.55285,0.0411 0.29581,0.75774 -0.50037,1.39504 -1.03988,1.65028 -1.03988,0.49198 z m 153.97312,-0.61674 c -0.40847,-1.14766 -0.32201,-1.24015 0.42136,-0.45079 0.5144,0.54624 0.74566,1.196 0.51392,1.44393 -0.23175,0.24793 -0.65262,-0.19898 -0.93528,-0.99314 z m -60.58036,-1.51104 c 0.0361,-0.93808 0.21447,-1.12889 0.45474,-0.48651 0.21743,0.58129 0.1907,1.27584 -0.0594,1.54341 -0.25012,0.26758 -0.42801,-0.20803 -0.39533,-1.0569 z m 23.93058,-0.13421 c -0.93624,-1.27718 -0.90962,-1.30567 0.28419,-0.30403 1.25379,1.05196 1.65251,1.71323 1.03302,1.71323 -0.1563,0 -0.74904,-0.63414 -1.31721,-1.4092 z m -115.81796,-0.50534 c 0,-0.16722 0.59274,-0.80136 1.3172,-1.4092 1.19381,-1.00164 1.22043,-0.97316 0.28419,0.30403 -0.98329,1.34136 -1.60139,1.76792 -1.60139,1.10517 z m 150.44162,-1.10517 c -0.93625,-1.27719 -0.90963,-1.30567 0.28418,-0.30403 1.25379,1.05196 1.65251,1.71323 1.03302,1.71323 -0.15629,0 -0.74904,-0.63414 -1.3172,-1.4092 z m -113.5599,-0.50535 c 0,-0.16721 0.59274,-0.80135 1.3172,-1.4092 1.19381,-1.00163 1.22043,-0.97315 0.28419,0.30403 -0.98329,1.34136 -1.60139,1.76793 -1.60139,1.10517 z m 75.92549,-1.91042 c -0.93625,-1.27719 -0.90962,-1.30567 0.28418,-0.30403 0.72447,0.60784 1.31721,1.24198 1.31721,1.40919 0,0.66276 -0.6181,0.23619 -1.60139,-1.10516 z m 35.37634,-0.80526 c -0.93624,-1.27718 -0.90962,-1.30567 0.28419,-0.30403 0.72446,0.60785 1.3172,1.24199 1.3172,1.4092 0,0.66276 -0.6181,0.23619 -1.60139,-1.10517 z m -108.29108,-1.3106 c 0,-0.16721 0.59274,-0.80135 1.3172,-1.4092 1.19381,-1.00164 1.22044,-0.97316 0.28419,0.30403 -0.98329,1.34136 -1.60139,1.76793 -1.60139,1.10517 z m 69.90399,-1.91043 c -0.93625,-1.27718 -0.90963,-1.30566 0.28418,-0.30403 1.25379,1.05196 1.65251,1.71323 1.03302,1.71323 -0.15629,0 -0.74904,-0.63414 -1.3172,-1.4092 z m 35.37634,-0.80525 c -0.93625,-1.27719 -0.90962,-1.30567 0.28419,-0.30404 1.25379,1.05197 1.65251,1.71324 1.03301,1.71324 -0.15629,0 -0.74903,-0.63414 -1.3172,-1.4092 z m -51.02736,-1.47631 c 0.0361,-0.93808 0.21447,-1.12888 0.45475,-0.48651 0.21743,0.58129 0.19069,1.27584 -0.0594,1.54341 -0.25011,0.26758 -0.42801,-0.20803 -0.39533,-1.0569 z m -85.86587,-1.44481 c 0,-0.16721 0.59274,-0.80135 1.3172,-1.4092 1.19381,-1.00164 1.22043,-0.97315 0.28419,0.30403 -0.98329,1.34136 -1.60139,1.76793 -1.60139,1.10517 z m 58.01641,-2.58147 c 0.0361,-0.93808 0.21447,-1.12889 0.45474,-0.48651 0.21743,0.58129 0.1907,1.27583 -0.0594,1.54341 -0.25012,0.26758 -0.42801,-0.20803 -0.39533,-1.0569 z m -55.00566,-1.44482 c 0,-0.16721 0.59274,-0.80135 1.3172,-1.4092 1.19381,-1.00163 1.22044,-0.97315 0.28419,0.30404 -0.98329,1.34135 -1.60139,1.76792 -1.60139,1.10516 z m 84.51635,-4.12488 c 0.006,-2.21445 0.15183,-3.02479 0.32484,-1.80075 0.17301,1.22404 0.16838,3.03587 -0.0102,4.02628 -0.17866,0.99042 -0.32021,-0.0111 -0.31456,-2.22553 z m 8.93582,-0.40262 c 0,-1.10723 0.17085,-1.56019 0.37965,-1.00658 0.20881,0.55362 0.20881,1.45953 0,2.01315 -0.2088,0.55361 -0.37965,0.10065 -0.37965,-1.00657 z m -90.44142,0.50122 c 0,-0.16721 0.59274,-0.80135 1.31721,-1.4092 1.19381,-1.00163 1.22043,-0.97315 0.28418,0.30403 -0.98329,1.34136 -1.60139,1.76793 -1.60139,1.10517 z m 3.01076,-4.02628 c 0,-0.16722 0.59274,-0.80136 1.3172,-1.4092 1.19381,-1.00164 1.22043,-0.97316 0.28418,0.30403 -0.98328,1.34136 -1.60138,1.76792 -1.60138,1.10517 z m 3.01075,-3.97423 c 0,-0.13858 1.1008,-1.31627 2.44623,-2.61708 l 2.44624,-2.36512 -2.21071,2.61709 c -2.0607,2.43949 -2.68176,2.98722 -2.68176,2.36511 z m 108.71609,-2.36511 -2.21072,-2.61709 2.44624,2.36512 c 2.28024,2.20461 2.79221,2.86905 2.21071,2.86905 -0.12954,0 -1.23034,-1.17768 -2.44623,-2.61708 z m -37.30673,-0.40263 c -0.93625,-1.27719 -0.90962,-1.30567 0.28419,-0.30403 1.25379,1.05196 1.65251,1.71323 1.03301,1.71323 -0.15629,0 -0.74903,-0.63414 -1.3172,-1.4092 z M 113.43754,293.36321 c 0.004,-2.65735 0.14474,-3.64736 0.31226,-2.20003 0.16752,1.44732 0.16406,3.62152 -0.008,4.83154 -0.17174,1.21002 -0.3088,0.0259 -0.30458,-2.63151 z m 312.36559,0 c 0.005,-2.65735 0.14474,-3.64736 0.31226,-2.20003 0.16752,1.44732 0.16406,3.62152 -0.008,4.83154 -0.17175,1.21002 -0.30881,0.0259 -0.30458,-2.63151 z m -321.44127,0 c 0.008,-1.77156 0.1625,-2.40148 0.34253,-1.39981 0.18004,1.00167 0.17321,2.45113 -0.0152,3.22103 -0.18839,0.7699 -0.33569,-0.0497 -0.32734,-1.82122 z m 330.4301,0 c 0.008,-1.77156 0.1625,-2.40148 0.34254,-1.39981 0.18003,1.00167 0.1732,2.45113 -0.0152,3.22103 -0.18839,0.7699 -0.3357,-0.0497 -0.32734,-1.82122 z M 119.9785,275.64756 c 1.40435,-1.55012 2.72272,-2.8184 2.92971,-2.8184 0.20699,0 -0.77267,1.26828 -2.17702,2.8184 -1.40436,1.55012 -2.72273,2.8184 -2.92972,2.8184 -0.20699,0 0.77267,-1.26828 2.17703,-2.8184 z m 298.77668,-0.20132 -2.59389,-3.01971 2.82258,2.77505 c 1.55242,1.52628 2.82258,2.88515 2.82258,3.01972 0,0.61491 -0.63694,0.0356 -3.05127,-2.77506 z m -304.79819,-7.04599 c 0.97228,-1.10723 1.93714,-2.01315 2.14413,-2.01315 0.20699,0 -0.41916,0.90592 -1.39144,2.01315 -0.97228,1.10723 -1.93714,2.01314 -2.14413,2.01314 -0.20699,0 0.41916,-0.90591 1.39144,-2.01314 z m 310.80324,-0.20132 -1.82475,-2.21445 2.0699,1.95219 c 1.93462,1.82462 2.41506,2.47672 1.82475,2.47672 -0.13483,0 -1.06628,-0.99651 -2.0699,-2.21446 z m -292.87985,0.85912 c 0.54335,-0.23261 1.19254,-0.20401 1.44265,0.0635 0.25011,0.26758 -0.19444,0.4579 -0.9879,0.42294 -0.87684,-0.0387 -1.0552,-0.22945 -0.45475,-0.48651 z m 274.73118,0 c 0.54334,-0.23261 1.19254,-0.20401 1.44265,0.0635 0.25011,0.26758 -0.19445,0.4579 -0.9879,0.42294 -0.87684,-0.0387 -1.05519,-0.22945 -0.45475,-0.48651 z m -274.73118,-9.66308 c 0.54335,-0.23261 1.19254,-0.20401 1.44265,0.0635 0.25011,0.26757 -0.19444,0.4579 -0.9879,0.42293 -0.87684,-0.0387 -1.0552,-0.22945 -0.45475,-0.4865 z m 274.73118,0 c 0.54334,-0.23261 1.19254,-0.20401 1.44265,0.0635 0.25011,0.26757 -0.19445,0.4579 -0.9879,0.42293 -0.87684,-0.0387 -1.05519,-0.22945 -0.45475,-0.4865 z m -227.61855,-27.83523 -1.43387,-1.81182 1.69355,1.534 c 1.59151,1.44159 2.0362,2.08965 1.43386,2.08965 -0.14283,0 -0.90492,-0.81532 -1.69354,-1.81183 z m 180.71667,0.20132 c 0.74929,-0.88578 1.5317,-1.61052 1.73869,-1.61052 0.20699,0 -0.23671,0.72474 -0.986,1.61052 -0.7493,0.88578 -1.53171,1.61051 -1.7387,1.61051 -0.20699,0 0.23671,-0.72473 0.98601,-1.61051 z m -165.15563,-2.08025 c 0.0361,-0.93808 0.21447,-1.12889 0.45474,-0.48651 0.21743,0.58129 0.1907,1.27583 -0.0594,1.54341 -0.25012,0.26758 -0.42801,-0.20803 -0.39533,-1.0569 z m 149.78494,0 c 0.0361,-0.93808 0.21448,-1.12889 0.45475,-0.48651 0.21743,0.58129 0.19069,1.27583 -0.0594,1.54341 -0.25011,0.26758 -0.42801,-0.20803 -0.39532,-1.0569 z m -125.69892,-24.1577 c 0.0361,-0.93809 0.21447,-1.12889 0.45475,-0.48651 0.21742,0.58129 0.19069,1.27582 -0.0594,1.54341 -0.25012,0.26758 -0.42801,-0.20803 -0.39533,-1.0569 z M 204.0914,186.13337 c 0.51747,-0.22339 1.36425,-0.22339 1.88172,0 0.51747,0.22338 0.0941,0.40616 -0.94086,0.40616 -1.03495,0 -1.45833,-0.18278 -0.94086,-0.40616 z m 129.46236,0 c 0.51748,-0.22339 1.36425,-0.22339 1.88172,0 0.51748,0.22338 0.0941,0.40616 -0.94086,0.40616 -1.03494,0 -1.45833,-0.18278 -0.94086,-0.40616 z M 179.65222,164.88678 c 0.31121,-17.56086 0.64405,-22.50327 1.89545,-28.14604 8.4667,-38.177675 36.01114,-66.541178 72.03298,-74.174944 7.78474,-1.649748 26.26118,-1.427328 34.24731,0.412271 31.45689,7.246071 57.32995,31.637098 67.31485,63.458983 3.82731,12.19763 4.29227,15.98641 4.71935,38.45585 l 0.40499,21.30746 -2.73592,-2.23252 c -5.69127,-4.64412 -10.26306,-6.2059 -20.57466,-7.02853 -10.84744,-0.86538 -15.63908,-1.67458 -23.21425,-3.92038 -12.49324,-3.70385 -23.12357,-10.56904 -31.22053,-20.16255 -5.54858,-6.57414 -7.91624,-8.06307 -12.82166,-8.06307 -4.68537,0 -6.64175,1.31084 -14.18553,9.50474 -13.33266,14.48164 -27.86058,20.69888 -52.94429,22.65753 -10.31261,0.80526 -14.87107,2.35808 -20.56717,7.00615 l -2.72842,2.22641 z m 101.30553,0.23927 c -0.93624,-1.27719 -0.90962,-1.30567 0.28419,-0.30403 0.72446,0.60785 1.3172,1.24199 1.3172,1.4092 0,0.66276 -0.6181,0.23619 -1.60139,-1.10517 z m -19.47388,-3.72637 c 0,-0.16722 0.59274,-0.80136 1.31721,-1.4092 1.19381,-1.00164 1.22043,-0.97316 0.28418,0.30403 -0.98329,1.34136 -1.60139,1.76792 -1.60139,1.10517 z m 14.95775,-1.10517 c -0.93624,-1.27719 -0.90962,-1.30567 0.28419,-0.30403 0.72446,0.60784 1.3172,1.24198 1.3172,1.4092 0,0.66275 -0.6181,0.23619 -1.60139,-1.10517 z m -105.91417,-8.25388 c 0,-1.10723 0.17084,-1.56019 0.37964,-1.00658 0.20881,0.55362 0.20881,1.45953 0,2.01315 -0.2088,0.55361 -0.37964,0.10065 -0.37964,-1.00657 z m 197.89757,0.33552 c 0.0361,-0.93808 0.21447,-1.12889 0.45474,-0.48651 0.21743,0.58129 0.19069,1.27583 -0.0594,1.54341 -0.25011,0.26758 -0.42801,-0.20803 -0.39532,-1.0569 z M 263.60081,51.638689 c 0.54334,-0.232615 1.19253,-0.204008 1.44265,0.06357 0.25011,0.26758 -0.19445,0.457901 -0.9879,0.422936 -0.87684,-0.03864 -1.05519,-0.22945 -0.45475,-0.486509 z m 11.29032,0 c 0.54334,-0.232615 1.19254,-0.204008 1.44265,0.06357 0.25012,0.26758 -0.19444,0.457901 -0.9879,0.422936 -0.87684,-0.03864 -1.05519,-0.22945 -0.45475,-0.486509 z"
         id="path174" />
      <path
         style="fill:#010101;stroke-width:0.778529"
         d="m 86.483874,462.46543 c -3.761078,-1.42276 -7.543493,-5.72872 -8.596713,-9.78664 -1.021919,-3.93731 -1.035671,-12.6697 -0.02608,-16.55879 0.427579,-1.64709 1.651519,-4.10607 2.719868,-5.4644 3.506269,-4.45799 5.634423,-5.14147 17.463734,-5.60866 l 10.808127,-0.42686 2.43127,-7.24731 c 3.10015,-9.24117 7.01504,-17.56242 12.2391,-26.01468 l 4.13395,-6.68853 -11.45293,-42.7079 -11.45294,-42.70791 0.34907,-7.37418 c 0.47177,-9.96599 2.45611,-15.2814 8.12536,-21.76511 5.10409,-5.83735 10.37723,-8.91319 17.35799,-10.12496 2.81683,-0.48896 18.72029,-0.84008 38.21191,-0.84363 31.50653,-0.006 33.35557,-0.0854 32.82936,-1.41528 -1.62961,-4.11829 -4.85347,-14.47039 -4.86219,-15.61289 -0.007,-0.8805 -0.93542,-1.5053 -2.79108,-1.87774 -7.31011,-1.46716 -16.20726,-8.91798 -19.83827,-16.61336 -3.58986,-7.60814 -3.93018,-12.16536 -3.49946,-46.86127 0.2965,-23.88366 0.67826,-33.15266 1.56808,-38.07275 7.44314,-41.15556 35.9158,-73.614385 73.41883,-83.697475 44.69781,-12.017478 91.0616,10.40244 112.09204,54.203815 2.13666,4.45016 4.90881,11.4435 6.16032,15.54076 4.21554,13.80101 4.59385,17.7219 5.01971,52.02565 0.42522,34.25221 0.0684,39.3184 -3.26528,46.35649 -3.90543,8.24527 -12.53808,15.60597 -20.07736,17.11912 -1.84737,0.37078 -2.78146,0.99864 -2.79213,1.87676 -0.0146,1.20103 -3.42398,12.22282 -4.82956,15.61289 -0.55155,1.33026 1.28597,1.40954 32.8027,1.41528 19.49162,0.003 35.39507,0.35467 38.2119,0.84363 6.98076,1.21177 12.2539,4.28761 17.358,10.12496 5.6637,6.47738 7.65364,11.80149 8.12417,21.73641 l 0.34791,7.3455 -11.41595,42.6883 -11.41594,42.68829 4.08919,6.73683 c 5.28005,8.69873 9.17717,17.01586 12.21223,26.06298 l 2.43126,7.24731 10.80813,0.42686 c 11.82931,0.46719 13.95747,1.15067 17.46373,5.60866 1.06835,1.35833 2.29229,3.81731 2.71987,5.4644 1.02029,3.93028 0.99223,12.63526 -0.0537,16.66592 -1.06519,4.10479 -5.50191,8.85137 -9.33873,9.99096 -2.14717,0.63773 -53.86555,0.88046 -182.88625,0.85833 -153.08954,-0.0262 -180.341063,-0.20055 -182.903231,-1.16978 z m 365.559006,-9.78616 c 1.91792,-1.85692 2.01636,-14.29182 0.13078,-16.52087 -1.20022,-1.41886 -7.85279,-1.4726 -182.27944,-1.4726 -167.39755,0 -181.137429,0.10038 -182.410218,1.33269 -1.917916,1.85691 -2.016353,14.29182 -0.130782,16.52087 1.200226,1.41886 7.852793,1.4726 182.27944,1.4726 167.39755,0 181.13743,-0.10038 182.41022,-1.33269 z M 138.04301,424.36566 c 0,-0.65262 -6.41153,-24.45372 -7.18541,-26.67393 -0.75415,-2.16357 -7.59231,11.31206 -11.51942,22.70076 l -1.59662,4.63022 h 10.15073 c 5.5829,0 10.15072,-0.29567 10.15072,-0.65705 z m 271.26064,-63.77048 c 16.15506,-60.39663 17.20261,-64.71325 16.81482,-69.28847 -0.82911,-9.78224 -7.21818,-18.79676 -15.0962,-21.29968 -3.30336,-1.0495 -21.4452,-1.20415 -141.25883,-1.20415 -119.81362,0 -137.95547,0.15465 -141.25883,1.20415 -7.88124,2.50394 -14.26705,11.51704 -15.09692,21.30819 -0.38875,4.58655 0.64725,8.85559 16.81483,69.28891 l 17.2291,64.40122 122.31182,-4.5e-4 122.31183,-4.5e-4 z m -188.08859,39.12304 c -1.24194,-0.59607 -3.48576,-2.48431 -4.98628,-4.19609 -4.69565,-5.35677 -21.79055,-28.73522 -23.3028,-31.86817 -1.83714,-3.80603 -1.83977,-8.73031 -0.007,-12.54565 2.22375,-4.62849 23.46881,-32.53771 26.31001,-34.56294 9.88222,-7.04408 22.61745,2.00078 20.82476,14.79025 -0.39353,2.8075 -2.05011,5.59415 -8.77471,14.76053 l -8.28958,11.29964 7.95061,10.79399 c 4.37284,5.93669 8.29209,11.75483 8.70943,12.9292 1.7047,4.79682 -0.005,12.57897 -3.49039,15.89034 -3.78408,3.59485 -10.54497,4.82037 -14.94434,2.7089 z m 8.78481,-9.84899 c 2.94236,-2.84876 1.88225,-5.37242 -7.65578,-18.22505 -6.44888,-8.68995 -9.03226,-12.78645 -9.03226,-14.32259 0,-1.54088 2.5635,-5.58167 9.03226,-14.23737 9.46502,-12.66491 10.43694,-14.91809 7.78656,-18.05127 -0.73434,-0.86812 -2.28026,-1.47261 -3.76606,-1.47261 -2.37441,0 -3.20319,0.91868 -14.30987,15.86203 -8.35122,11.23604 -11.78948,16.46891 -11.78948,17.94298 0,1.47509 3.4401,6.70374 11.81567,17.95877 10.84883,14.57856 12.00906,15.8778 14.17908,15.8778 1.29988,0 2.98282,-0.5997 3.73988,-1.33269 z m 28.00953,9.50297 c -1.70398,-0.85411 -4.05572,-2.89607 -5.22611,-4.5377 -3.78009,-5.30208 -3.51668,-8.24853 3.73145,-41.73762 4.03566,-18.6463 7.00058,-30.65971 7.98917,-32.371 2.41223,-4.17568 6.35719,-6.40437 11.27771,-6.37131 4.96356,0.0333 8.19537,1.69266 11.02386,5.66 3.67264,5.15137 3.39896,8.36961 -3.45146,40.58759 -3.34306,15.72264 -6.7425,30.11451 -7.5543,31.98191 -2.94131,6.76592 -11.39752,9.99249 -17.79032,6.78813 z m 9.09965,-9.75716 c 0.89253,-1.05512 3.44769,-11.37661 7.62502,-30.80108 3.45546,-16.06781 6.29099,-29.78 6.30117,-30.47155 0.0306,-2.07952 -2.88717,-4.78207 -5.16296,-4.78207 -1.16164,0 -2.71418,0.71179 -3.4501,1.58175 -0.89086,1.05315 -3.44521,11.4485 -7.64354,31.10661 -3.46804,16.23867 -6.30552,30.02152 -6.30552,30.62853 0,1.88465 2.9069,4.32469 5.15216,4.32469 1.17777,0 2.74547,-0.7141 3.48377,-1.58688 z m 41.63714,10.45404 c -7.65015,-2.46714 -11.86189,-12.70734 -8.29656,-20.1718 0.73224,-1.53304 4.66371,-7.22633 8.73659,-12.65175 l 7.40525,-9.8644 -7.40525,-9.86439 c -8.55933,-11.40174 -10.07414,-14.21863 -10.05141,-18.69118 0.0187,-3.67019 2.05897,-9.00761 4.23267,-11.07262 3.7957,-3.60588 10.28479,-4.8095 14.78035,-2.74151 3.12205,1.43616 5.79606,4.53638 17.44472,20.22514 10.79764,14.54258 12.45046,17.48232 12.45046,22.14456 0,4.78307 -1.65456,7.59768 -14.43769,24.56034 -13.90703,18.45402 -16.95502,20.67667 -24.85913,18.12761 z m 18.64478,-24.72154 c 8.54165,-11.40816 11.87068,-16.44669 11.87068,-17.96641 0,-1.51972 -3.32903,-6.55824 -11.87068,-17.9664 -10.77826,-14.39536 -12.0831,-15.85439 -14.17908,-15.85439 -2.99988,0 -5.06135,2.05755 -5.06135,5.05171 0,1.84092 2.06436,5.1486 9.03226,14.47217 6.38421,8.54258 9.03149,12.70507 9.02962,14.19796 -0.002,1.48808 -2.66966,5.68079 -9.02962,14.19095 -4.96485,6.64337 -9.06832,12.6224 -9.11881,13.28674 -0.30078,3.95717 1.63447,6.44205 5.01711,6.44205 2.26593,0 3.28243,-1.12621 14.30987,-15.85438 z m 92.79774,45.04495 c -3.92712,-11.3887 -10.76528,-24.86433 -11.51942,-22.70076 -0.77389,2.22021 -7.18542,26.02131 -7.18542,26.67393 0,0.36138 4.56782,0.65705 10.15072,0.65705 h 10.15073 z M 330.4957,252.69774 c 4.83226,-12.07034 4.99559,-13.3338 5.31887,-41.14465 l 0.29574,-25.44213 -6.64117,-0.50547 c -21.44521,-1.63221 -42.41281,-12.32497 -54.63297,-27.86096 -3.84455,-4.88774 -6.30007,-4.88774 -10.14768,0 -9.8185,12.47273 -22.58776,20.49858 -40.16076,25.2422 -4.30584,1.16231 -10.79251,2.33887 -14.41483,2.61457 l -6.58602,0.50128 v 22.7584 c 0,16.24364 0.30359,24.44988 1.06053,28.66735 1.05566,5.8818 3.70952,14.27083 6.03948,19.09116 l 1.22302,2.53023 58.11398,-0.20628 58.11398,-0.20628 z m -96.61141,-24.89195 c -4.3367,-1.17462 -9.32719,-4.92263 -11.55212,-8.67601 -7.48934,-12.63424 -1.38863,-28.49814 12.15437,-31.60544 6.43585,-1.47664 15.14721,1.83031 18.63815,7.07529 1.43988,2.16335 1.72346,2.25486 5.12983,1.65541 4.63716,-0.81605 18.36541,-0.81886 22.98892,-0.005 3.41544,0.60143 3.65751,0.51661 5.36648,-1.88046 0.98434,-1.38067 3.60866,-3.57096 5.83183,-4.86732 10.485,-6.11394 24.01348,-0.20172 27.39241,11.97103 1.40998,5.07951 1.39738,7.22543 -0.0736,12.52458 -1.62938,5.86992 -6.92017,11.53023 -12.40689,13.27341 -4.95322,1.57368 -6.95905,1.58716 -11.70695,0.0787 -7.24742,-2.30257 -12.424,-9.17642 -13.51071,-17.94052 l -0.49836,-4.01924 -3.86722,-0.49711 c -4.93005,-0.63371 -11.08398,-0.63371 -16.01403,0 l -3.86722,0.49711 -0.50035,4.03522 c -1.26528,10.20432 -8.20153,17.61658 -17.42706,18.62303 -2.03114,0.22158 -4.76602,0.11224 -6.07751,-0.24299 z m 9.80506,-10.45713 c 6.7307,-4.74738 6.7307,-14.74323 0,-19.49062 -4.55476,-3.21262 -11.41703,-1.42317 -14.64793,3.81967 -3.00289,4.87286 -1.33027,12.21441 3.57031,15.67095 2.83249,1.99785 8.24513,1.99785 11.07762,0 z m 63.2258,0 c 3.28553,-2.31739 4.98891,-5.64476 4.98891,-9.74531 0,-6.4799 -4.47083,-11.26298 -10.52772,-11.26298 -6.05688,0 -10.52771,4.78308 -10.52771,11.26298 0,6.4799 4.47083,11.26298 10.52771,11.26298 2.05513,0 4.23326,-0.59682 5.53881,-1.51767 z M 194.636,209.4329 c -0.12925,-11.83835 -0.35046,-21.64781 -0.49159,-21.7988 -0.6286,-0.6725 -6.29953,3.20631 -8.78728,6.01034 -4.56753,5.14821 -5.52723,7.85295 -5.52439,15.56943 0.002,5.46947 0.32816,7.49184 1.62326,10.06571 2.49678,4.96205 9.61857,11.51149 12.66228,11.64467 0.48941,0.0214 0.6705,-7.49613 0.51772,-21.49135 z m 154.00151,19.98062 c 3.33765,-1.8433 7.73987,-6.64224 9.66552,-10.53657 1.04046,-2.10416 1.39363,-4.55297 1.39363,-9.66308 0,-7.71602 -0.96092,-10.42295 -5.5269,-15.56943 -2.48776,-2.80403 -8.15869,-6.68284 -8.78729,-6.01034 -0.55789,0.59686 -0.68813,43.32305 -0.13205,43.32239 0.32697,-3.7e-4 1.85117,-0.69472 3.38709,-1.54297 z M 188.8447,179.72074 c 3.27169,-1.60243 6.07963,-2.16813 13.72561,-2.76516 25.08371,-1.95865 39.61163,-8.17589 52.94429,-22.65753 7.54378,-8.1939 9.50016,-9.50474 14.18553,-9.50474 4.90542,0 7.27308,1.48893 12.82166,8.06307 8.09696,9.59351 18.72729,16.4587 31.22053,20.16255 7.57517,2.2458 12.36681,3.055 23.21425,3.92038 10.3116,0.82263 14.88339,2.38441 20.57466,7.02853 l 2.73592,2.23252 -0.40499,-21.30746 c -0.42708,-22.46944 -0.89204,-26.25822 -4.71935,-38.45585 -9.9849,-31.821885 -35.85796,-56.212912 -67.31485,-63.458983 -7.98613,-1.839599 -26.46257,-2.062019 -34.24731,-0.412271 -36.02184,7.633766 -63.56628,35.997269 -72.03298,74.174944 -1.2514,5.64277 -1.58424,10.58518 -1.89545,28.14604 l -0.3775,21.30136 2.72842,-2.22641 c 1.50064,-1.22453 4.57933,-3.13298 6.84156,-4.24099 z"
         id="path172" />
    </g>
  </g>
</svg>
